<svg class="illustration" width="1152" height="700" viewBox="0 0 1152 700" fill="none" xmlns="http://www.w3.org/2000/svg">
<path opacity="0.3" d="M357 368.288L564.089 435L758 373.712V390L564.089 453.5L357 384V368.288Z" fill="#ffffff"/>
<path fill-rule="evenodd" clip-rule="evenodd" d="M441.857 142.561L441.233 142.512L441.323 143.131L467.3 321.895C467.079 322.187 466.946 322.496 466.867 322.81C466.764 323.222 466.757 323.644 466.75 324.002L466.749 324.1C466.742 324.439 466.729 324.725 466.664 324.987C466.014 325.493 465.707 326.101 465.615 326.751C465.521 327.412 465.654 328.092 465.78 328.675L465.82 328.859C465.938 329.397 466.036 329.847 466.024 330.254C466.012 330.663 465.888 330.985 465.523 331.259C464.559 331.982 464.217 332.988 464.171 333.908C464.132 334.685 464.302 335.425 464.502 335.952L357.006 367.765L356.5 367.602V367.915L355.306 368.268L356.5 368.652V384V384.36L356.841 384.474L563.93 453.974L564.087 454.027L564.245 453.975L758.156 390.475L758.5 390.362V390V374.078L759.595 373.732L758.5 373.355V373.029L758.006 373.185L652.578 336.914C651.577 333.764 650.755 331.353 650.248 330.186C650.04 329.709 649.808 329.16 649.551 328.551C648.236 325.44 646.257 320.759 643.541 316.15C640.299 310.647 635.956 305.156 630.337 302.542C629.921 302.349 629.506 302.167 629.091 301.996C629.149 301.838 629.207 301.677 629.264 301.515C629.315 301.369 629.366 301.221 629.417 301.073C629.935 299.545 630.398 297.884 630.505 296.596C630.553 296.02 630.934 295.413 631.652 294.748C632.362 294.091 633.33 293.443 634.41 292.776C634.8 292.535 635.208 292.29 635.62 292.042C636.324 291.619 637.043 291.187 637.715 290.751C639.163 291.91 640.497 292.945 641.633 293.779C642.529 294.438 643.311 294.977 643.931 295.354C644.24 295.542 644.519 295.695 644.758 295.803C644.978 295.903 645.229 295.994 645.458 295.994C646.06 295.994 646.574 295.928 646.98 295.775C647.395 295.618 647.734 295.353 647.897 294.947C648.054 294.554 648.006 294.126 647.865 293.719C647.724 293.309 647.471 292.866 647.139 292.401C646.853 292.001 646.866 291.831 646.878 291.779C646.894 291.704 646.958 291.609 647.184 291.415L647.205 291.397L647.228 291.378L647.282 291.333L647.285 291.33C647.475 291.172 647.734 290.957 647.926 290.69C648.18 290.336 648.329 289.889 648.246 289.308C648.117 288.404 648.071 287.92 648.175 287.449C648.279 286.981 648.545 286.477 649.177 285.593C649.4 285.281 649.797 284.609 650.257 283.65L753.661 331.454L753.859 331.546L754.061 331.462L848.204 292.616L927.401 322.468L927.601 322.543L927.794 322.451L964.216 304.951L964.5 304.815V304.5V292.41L965.332 292.057L964.5 291.736V291.323L963.991 291.54L893.351 264.306L916.586 253.201L917.619 252.708L916.555 252.286L879.199 237.457L879.034 237.391L878.865 237.444L848.21 247.064L764.32 215.532L764.155 215.47L763.987 215.525L724.938 228.363L724.419 228.153V228.533L723.466 228.846L724.419 229.232V241V241.335L724.729 241.463L788.625 267.732L753.896 280.576L684.043 247.141L683.865 247.056L683.677 247.116L648.926 258.111C648.381 257.369 647.773 256.635 647.097 255.913C635.75 243.793 622.245 242.946 613.603 248.183C609.375 250.746 607.371 252.423 606.258 253.47C606.001 253.712 605.793 253.919 605.621 254.09L605.582 254.129C605.399 254.311 605.268 254.44 605.154 254.536C605.044 254.63 604.971 254.674 604.913 254.698C604.859 254.721 604.795 254.736 604.69 254.736C604.043 254.736 603.332 255.048 602.755 255.374C602.274 255.646 601.831 255.961 601.511 256.216C600.062 255.842 598.011 255.393 596.275 255.191C595.363 255.085 594.5 255.042 593.85 255.129C593.529 255.172 593.209 255.253 592.956 255.412C592.68 255.586 592.469 255.869 592.469 256.255V256.482L592.639 256.631C594.344 258.123 597.017 260.36 599.497 262.228C599.861 262.502 600.221 262.769 600.575 263.024C599.577 264.174 598.873 265.453 598.309 266.659C598.074 267.161 597.862 267.654 597.664 268.119L597.568 268.345C597.406 268.729 597.253 269.09 597.1 269.428C596.73 270.247 596.395 270.856 596.02 271.231C595.856 271.395 595.398 271.74 594.735 272.204C594.089 272.656 593.291 273.193 592.482 273.732C592.054 274.016 591.621 274.303 591.207 274.577C590.069 275.33 589.069 275.992 588.684 276.28C588.37 276.516 588.145 276.793 588.021 277.105C587.897 277.42 587.887 277.739 587.955 278.035C588.088 278.61 588.509 279.088 588.961 279.39C589.138 279.508 589.188 279.569 589.2 279.589C589.2 279.591 589.2 279.594 589.2 279.598L589.2 279.606C589.199 279.61 589.199 279.615 589.198 279.621C589.197 279.627 589.196 279.633 589.194 279.64C589.176 279.731 589.123 279.871 589.004 280.117C588.938 280.254 588.863 280.401 588.775 280.573L588.773 280.577C588.703 280.714 588.625 280.867 588.537 281.043C588.176 281.765 588.112 282.587 588.16 283.288C588.188 283.693 588.254 284.074 588.332 284.398C588.043 284.46 587.794 284.568 587.585 284.725C587.228 284.992 587.051 285.355 586.968 285.707C586.934 285.854 586.915 286.003 586.906 286.148C586.211 284.956 585.507 283.753 584.801 282.548C580.865 275.836 576.827 269.051 573.604 263.636L573.182 262.925C569.883 257.383 567.543 253.444 567.172 252.701C566.988 252.334 566.784 251.857 566.556 251.296L572.116 250.128L572.351 250.079L572.459 249.864C573.406 247.988 573.148 245.952 572.574 244.343C572.285 243.534 571.91 242.815 571.546 242.25C571.19 241.698 570.819 241.254 570.521 241.029L570.331 240.885L570.1 240.942L562.731 242.761C562.257 241.964 561.745 241.217 561.194 240.563C560.193 239.376 559.02 238.454 557.654 238.167C557.194 238.07 556.763 238.017 556.359 237.997L533.717 131.258L533.64 130.897L533.273 130.864L522.117 129.844L521.442 129.782L521.582 130.446L539.654 215.639L460.78 194.354L460.143 189.877L459.101 182.549L459.101 182.544L453.968 143.908L453.915 143.507L453.511 143.475L441.857 142.561ZM756.405 373.692L652.952 338.101C654.432 342.821 656.237 348.91 657.977 354.93C661.097 365.721 664.032 376.376 664.546 378.689C664.776 379.722 665.105 382.876 665.454 387.194C665.787 391.324 666.141 396.559 666.441 402.126L756.405 373.692ZM665.456 402.437C665.153 396.783 664.795 391.458 664.457 387.274C664.106 382.925 663.781 379.855 663.57 378.906C663.064 376.631 660.14 366.011 657.016 355.208C655.18 348.856 653.284 342.471 651.777 337.696L649.852 337.034C650.971 340.8 652.497 345.776 654.12 351.07L654.123 351.08L654.129 351.1C655.017 353.996 655.934 356.986 656.829 359.924C658.517 365.466 660.126 370.821 661.314 374.998C661.908 377.086 662.397 378.884 662.739 380.266C662.91 380.957 663.044 381.548 663.137 382.021C663.227 382.484 663.284 382.868 663.284 383.129C663.284 383.92 663.462 387.562 663.711 392.658L663.711 392.665L663.712 392.671L663.712 392.675C663.858 395.658 664.028 399.138 664.201 402.834L665.456 402.437ZM663.214 403.146C663.039 399.399 662.866 395.857 662.717 392.816L662.717 392.804C662.465 387.652 662.284 383.944 662.284 383.129C662.284 382.975 662.246 382.675 662.155 382.213C662.067 381.762 661.937 381.189 661.768 380.506C661.431 379.141 660.945 377.355 660.352 375.271C659.167 371.104 657.56 365.757 655.872 360.215C654.978 357.282 654.062 354.292 653.174 351.395L653.172 351.39C651.447 345.765 649.829 340.486 648.691 336.635L643.804 334.953C644.259 337.418 644.326 339.841 644.108 342.184C643.396 349.856 639.646 356.629 636.706 361.23C630.736 370.574 616.014 378.558 600.023 375.978C590.952 374.515 585.795 369.272 583.229 364.67L595.904 424.42L663.214 403.146ZM594.946 424.723L581.267 360.24C578.07 361.87 574.773 363.749 572.393 365.159L578.395 393.451L580.351 402.673L585.651 427.661L594.946 424.723ZM583.931 428.204C583.279 423.834 582.561 419.426 581.549 416.952C580.779 415.067 579.202 409.75 577.486 403.147L576.37 403.085C576.58 404.016 576.791 404.919 577 405.788C577.566 408.138 578.125 410.235 578.661 411.948C579.199 413.67 579.704 414.971 580.152 415.748C582.167 419.241 583.268 424.146 583.899 428.215L583.931 428.204ZM582.934 428.519C582.31 424.443 581.229 419.616 579.286 416.248C578.779 415.369 578.248 413.978 577.706 412.246C577.162 410.504 576.597 408.383 576.028 406.023C575.796 405.062 575.564 404.061 575.332 403.028L489.787 398.316L491.609 411.126L564.091 434.475L582.934 428.519ZM490.551 410.785L488.712 397.854L487.201 387.234L481.586 347.75C480.764 347.573 479.918 347.449 479.069 347.324L479 347.314C476.873 347.001 474.666 346.674 473.131 345.278C472.657 344.848 472.134 344.57 471.579 344.386L480.769 407.634L490.551 410.785ZM479.709 407.293L470.532 344.141C469.961 344.052 469.367 344.016 468.768 343.981L468.66 343.974C467.875 343.927 467.057 343.87 466.352 343.625C465.616 343.369 464.988 342.903 464.604 342.058C464.05 340.839 463.94 339.539 464.019 338.427C464.053 337.942 464.123 337.487 464.21 337.081L358.693 368.308L479.709 407.293ZM757.5 374.394L564.589 435.366V452.81L757.5 389.638V374.394ZM563.589 435.364L357.5 368.974V383.64L563.589 452.805V435.364ZM628.161 301.628C628.265 301.342 628.369 301.048 628.47 300.751C628.983 299.238 629.412 297.672 629.509 296.513C629.588 295.561 630.194 294.735 630.973 294.014C631.76 293.286 632.799 292.596 633.885 291.925C634.297 291.67 634.714 291.42 635.13 291.17C635.725 290.812 636.318 290.456 636.893 290.09C636.305 289.615 635.702 289.123 635.088 288.618C630.173 284.579 624.575 279.734 620.921 276.504L620.825 276.42L620.782 276.301C617.876 268.342 614.589 265.79 611.894 265.116C610.529 264.775 609.258 264.898 608.164 265.118C607.74 265.203 607.353 265.3 606.991 265.391C606.882 265.418 606.775 265.445 606.67 265.471C606.24 265.576 605.811 265.673 605.454 265.673C605.115 265.673 604.721 265.543 604.328 265.369C603.92 265.188 603.452 264.932 602.947 264.624C602.467 264.332 601.944 263.987 601.395 263.606C600.451 264.673 599.774 265.888 599.215 267.083C598.988 267.568 598.782 268.047 598.585 268.51L598.49 268.733L598.49 268.733C598.327 269.117 598.169 269.49 598.011 269.839C597.641 270.66 597.243 271.421 596.727 271.938C596.488 272.177 595.948 272.575 595.309 273.023C594.653 273.482 593.846 274.025 593.036 274.564C592.59 274.861 592.144 275.156 591.723 275.435L591.718 275.438C590.597 276.18 589.643 276.811 589.284 277.08C589.088 277.227 588.995 277.364 588.951 277.474C588.909 277.581 588.902 277.692 588.93 277.81C588.988 278.063 589.204 278.35 589.516 278.558C589.721 278.694 589.927 278.856 590.058 279.075C590.207 279.323 590.226 279.583 590.175 279.836C590.129 280.064 590.024 280.305 589.904 280.553C589.87 280.622 589.833 280.697 589.793 280.777C589.75 280.862 589.704 280.952 589.656 281.047L589.561 281.234C589.531 281.293 589.5 281.354 589.469 281.416L589.431 281.49C589.181 281.992 589.117 282.613 589.158 283.22C589.199 283.823 589.341 284.362 589.452 284.658L589.706 285.334H588.984C588.544 285.334 588.311 285.43 588.185 285.525C588.064 285.615 587.987 285.746 587.942 285.936C587.895 286.135 587.891 286.371 587.907 286.632C587.909 286.671 587.912 286.714 587.915 286.758C587.918 286.799 587.922 286.842 587.925 286.886L587.926 286.889L587.926 286.893L587.926 286.897L587.926 286.898V286.899V286.899L587.927 286.9C587.94 287.07 587.955 287.251 587.955 287.382C587.955 287.531 587.915 287.671 587.863 287.793C589.95 291.387 591.935 294.846 593.669 297.936C595.234 298.278 597.103 298.569 599.124 298.852C600.027 298.978 600.961 299.102 601.909 299.229L601.915 299.23L601.916 299.23C605.106 299.655 608.461 300.102 611.385 300.716C611.396 300.645 611.419 300.579 611.45 300.52C611.562 300.305 611.775 300.181 611.918 300.111C612.244 299.95 612.746 299.817 613.357 299.716C613.981 299.612 614.755 299.535 615.648 299.502C618.748 299.389 623.355 299.815 628.161 301.628ZM598.985 299.842C597.316 299.609 595.726 299.366 594.315 299.09C594.822 300 595.304 300.873 595.757 301.703C596.437 302.95 597.053 304.101 597.589 305.132C597.619 305.142 597.649 305.151 597.68 305.16C597.728 305.175 597.778 305.19 597.829 305.205C597.857 305.212 597.885 305.22 597.913 305.228C602.879 303.933 607.897 302.746 612.256 301.934C609.166 301.206 605.424 300.707 601.819 300.226C600.86 300.098 599.911 299.971 598.985 299.842ZM594.879 302.182C594.302 301.126 593.678 299.999 593.015 298.814C592.702 298.741 592.402 298.666 592.116 298.588C591.195 298.338 590.392 298.052 589.771 297.714C589.462 297.546 589.18 297.354 588.947 297.132C588.983 297.607 589.033 298.166 589.09 298.781C589.273 298.907 589.457 299.034 589.642 299.161C589.793 299.265 589.945 299.369 590.097 299.473L590.099 299.474C590.985 300.081 591.879 300.694 592.701 301.29C593.887 302.149 594.986 303.018 595.79 303.866C595.502 303.328 595.198 302.766 594.879 302.182ZM587.229 288.694C589.05 291.83 590.787 294.856 592.34 297.613C591.469 297.374 590.764 297.116 590.249 296.836C589.715 296.544 589.46 296.269 589.373 296.037C589.277 295.78 589.19 295.574 589.11 295.422C589.102 295.406 589.094 295.391 589.085 295.376C589.075 295.358 589.065 295.34 589.054 295.323C589.029 295.281 589.001 295.239 588.971 295.201C588.932 295.152 588.826 295.024 588.647 294.973C588.539 294.942 588.412 294.942 588.288 294.994C588.172 295.043 588.098 295.12 588.054 295.18C587.975 295.287 587.946 295.404 587.932 295.467C587.902 295.608 587.893 295.787 587.892 295.966C587.889 296.433 587.942 297.163 588.018 298.031C586.624 297.04 585.411 296.098 584.624 295.235C584.214 294.785 583.947 294.386 583.82 294.04C583.697 293.708 583.709 293.445 583.826 293.211C584.559 291.744 585.542 290.574 586.362 289.659C586.472 289.536 586.581 289.417 586.686 289.301L586.698 289.288L586.7 289.286L586.708 289.276C586.758 289.221 586.807 289.167 586.855 289.114C586.896 289.069 586.937 289.024 586.976 288.98C587.065 288.88 587.15 288.785 587.229 288.694ZM587.613 298.97C587.787 299.093 587.962 299.216 588.138 299.338L588.157 299.535L588.157 299.535L588.164 299.611C588.311 301.172 588.477 302.94 588.554 304.509C588.622 305.916 588.614 307.095 588.483 307.819C584.697 308.908 581.254 309.954 578.549 310.81C578.295 310.891 578.048 310.969 577.808 311.046C577.727 311.066 577.669 311.102 577.639 311.122L577.628 311.129L577.392 311.048C577.271 310.833 577.148 310.608 577.024 310.374C576.122 308.669 575.183 306.523 574.233 304.09C572.333 299.223 570.403 293.243 568.636 287.401C567.326 283.068 566.107 278.82 565.06 275.165L565.059 275.163L565.058 275.16L565.058 275.16L565.056 275.154C564.693 273.887 564.35 272.692 564.032 271.59C563.413 269.45 562.882 267.657 562.466 266.373C562.381 266.111 562.3 265.869 562.224 265.648L559.494 252.779L565.562 251.504C565.823 252.153 566.062 252.718 566.277 253.149C566.67 253.935 569.043 257.927 572.322 263.437L572.746 264.148L572.749 264.153C575.971 269.568 580.006 276.347 583.938 283.053C584.867 284.637 585.79 286.217 586.695 287.773C586.679 287.793 586.663 287.814 586.646 287.835C586.468 288.052 586.244 288.3 585.978 288.593C585.865 288.717 585.745 288.849 585.618 288.991C584.782 289.923 583.726 291.174 582.931 292.764C582.666 293.295 582.685 293.852 582.881 294.385C583.072 294.904 583.434 295.414 583.885 295.908C584.785 296.896 586.148 297.935 587.613 298.97ZM589.552 304.46C589.484 303.054 589.345 301.495 589.212 300.079L589.557 300.315L589.559 300.316C590.427 300.911 591.292 301.504 592.114 302.099C593.547 303.138 594.755 304.123 595.473 305.021C595.673 305.271 595.946 305.482 596.27 305.661C593.972 306.272 591.703 306.9 589.533 307.518C589.621 306.681 589.608 305.598 589.552 304.46ZM589.043 308.698C591.633 307.955 594.377 307.194 597.149 306.462C597.533 307.217 597.863 307.889 598.132 308.469C598.487 309.234 598.727 309.82 598.847 310.212L598.857 310.243L598.865 310.271C598.87 310.289 598.875 310.306 598.88 310.323C598.701 310.337 598.461 310.347 598.158 310.354C597.684 310.366 597.098 310.368 596.421 310.372L596.064 310.373C594.412 310.382 592.308 310.401 590.126 310.546C587.947 310.692 585.673 310.964 583.683 311.485C582.797 311.717 581.952 312.002 581.191 312.355L579.175 311.661C581.889 310.806 585.304 309.771 589.043 308.698ZM576.853 312.111C576.89 312.172 576.927 312.233 576.964 312.293C576.765 312.774 576.511 313.457 576.193 314.413C575.854 315.235 575.56 316.604 575.251 318.152C575.193 318.448 575.133 318.751 575.072 319.061L575.071 319.066L575.07 319.068C574.845 320.215 574.602 321.448 574.321 322.676L571.661 310.134L576.711 311.871C576.759 311.952 576.806 312.032 576.853 312.111ZM575.141 323.559C575.032 324.011 574.917 324.463 574.795 324.908L581.976 358.764L582.126 358.689L582.249 359.34C583.069 363.686 587.8 372.994 600.183 374.991C615.787 377.508 630.112 369.694 635.863 360.692C638.784 356.121 642.423 349.516 643.112 342.092C643.337 339.666 643.248 337.147 642.711 334.577L581.258 313.435C580.574 313.789 580.006 314.197 579.58 314.668L579.256 315.027L578.887 314.714C578.473 314.364 578.057 313.889 577.639 313.311C577.496 313.695 577.329 314.167 577.136 314.746L577.13 314.763L577.123 314.78C576.828 315.488 576.55 316.754 576.232 318.348C576.174 318.64 576.114 318.942 576.054 319.251L576.053 319.253C575.787 320.604 575.493 322.098 575.141 323.559ZM570.558 309.754L573.766 324.876C573.428 326.073 573.043 327.19 572.592 328.13C571.941 329.487 571.201 330.37 570.371 330.681C569.279 331.091 568.13 331.863 566.875 332.799C566.497 333.081 566.113 333.376 565.716 333.681L560.418 308.704L560.398 308.614L564.078 307.525L570.558 309.754ZM567.473 333.601C566.998 333.955 566.488 334.349 565.946 334.767L572.174 364.127C574.604 362.694 577.886 360.831 581.052 359.227L574.188 326.866C573.976 327.467 573.745 328.038 573.493 328.563C572.815 329.977 571.93 331.165 570.722 331.618C569.775 331.973 568.726 332.666 567.473 333.601ZM559.507 309.231L564.838 334.36C564.137 334.901 563.391 335.471 562.576 336.064C559.322 338.434 555.171 341.01 549.514 342.645C546.676 343.465 544.772 343.706 543.401 343.665C542.047 343.623 541.19 343.305 540.434 342.958C540.301 342.897 540.168 342.833 540.033 342.768C539.408 342.467 538.744 342.147 537.902 342.022C536.862 341.866 535.582 342.001 533.692 342.653C533.191 342.825 532.725 343.092 532.291 343.438C525.745 342.367 518.01 341.351 512.707 341.351C507.644 341.351 502.081 338.497 497.739 335.423C495.579 333.893 493.743 332.325 492.453 331.066C491.807 330.435 491.303 329.889 490.965 329.467C490.893 329.377 490.829 329.294 490.775 329.219L558.808 309.084L559.507 309.231ZM534.018 343.598C533.941 343.624 533.865 343.654 533.789 343.687C537.018 344.233 539.865 344.774 541.854 345.183L542.46 345.307L542.212 345.873C540.559 349.646 538.195 355.403 536.475 360.416C535.614 362.925 534.919 365.231 534.554 367.003C534.371 367.891 534.275 368.622 534.276 369.168C534.276 369.441 534.3 369.648 534.34 369.796C534.38 369.947 534.427 370.001 534.442 370.015C534.491 370.059 534.569 370.134 534.624 370.237C534.683 370.349 534.761 370.608 534.568 370.843C534.43 371.009 534.241 371.039 534.186 371.047C534.102 371.059 534.018 371.057 533.947 371.053C533.671 371.035 533.235 370.94 532.696 370.798C531.595 370.509 529.905 369.979 527.814 369.269C527.475 369.154 527.125 369.034 526.765 368.91C526.735 369.711 526.718 370.465 526.711 371.158L526.71 371.281C526.728 371.291 526.747 371.301 526.767 371.311C526.783 371.319 526.799 371.328 526.816 371.336C526.837 371.347 526.858 371.357 526.88 371.368C527.841 371.847 529.932 372.665 534.009 373.99C535.938 374.617 538.638 374.627 541.8 374.185C544.948 373.745 548.496 372.865 552.086 371.765C559.266 369.563 566.568 366.49 571.096 364.332L571.186 364.289L565.068 335.445C564.465 335.907 563.83 336.389 563.165 336.873C559.857 339.281 555.6 341.928 549.791 343.606C546.897 344.442 544.883 344.71 543.371 344.664C541.843 344.618 540.852 344.251 540.016 343.866C539.854 343.792 539.703 343.719 539.557 343.649C538.941 343.355 538.434 343.112 537.754 343.011C536.931 342.887 535.822 342.976 534.018 343.598ZM512.707 342.351C517.745 342.351 525.048 343.286 531.397 344.306C530.766 345.035 530.213 345.941 529.728 346.954C528.715 349.066 527.943 351.755 527.358 354.619C526.484 358.899 526.021 363.626 525.824 367.522C521.945 366.155 517.116 364.342 512.161 362.344C506.163 359.926 499.992 357.241 495.101 354.75C492.655 353.504 490.54 352.312 488.931 351.232C488.126 350.691 487.456 350.184 486.937 349.716C486.413 349.244 486.067 348.834 485.883 348.493L485.824 348.383L485.72 348.314C484.71 347.641 483.602 347.222 482.48 346.933L480.397 332.29L489.769 329.517C489.875 329.689 490.017 329.883 490.185 330.093C490.557 330.556 491.091 331.134 491.754 331.782C493.083 333.078 494.959 334.68 497.161 336.239C501.546 339.344 507.323 342.351 512.707 342.351ZM528.338 354.819C527.454 359.148 526.994 363.955 526.809 367.867C527.267 368.026 527.71 368.178 528.135 368.322C530.221 369.03 531.885 369.551 532.95 369.831C533.095 369.869 533.227 369.902 533.344 369.93C533.296 369.699 533.276 369.441 533.276 369.169C533.275 368.523 533.386 367.715 533.575 366.801C533.953 364.966 534.663 362.613 535.529 360.091C537.177 355.29 539.406 349.821 541.048 346.039C538.882 345.603 535.901 345.047 532.591 344.5C531.879 345.172 531.224 346.147 530.63 347.386C529.668 349.393 528.915 351.992 528.338 354.819ZM511.787 363.272C516.876 365.324 521.835 367.182 525.777 368.566C525.746 369.338 525.726 370.07 525.716 370.75C525.639 370.79 525.54 370.86 525.469 370.982C525.368 371.158 525.382 371.343 525.434 371.478C525.479 371.596 525.554 371.683 525.611 371.74C525.672 371.802 525.744 371.859 525.819 371.912C525.97 372.018 526.174 372.134 526.434 372.263C527.469 372.778 529.624 373.616 533.7 374.941C535.849 375.639 538.733 375.623 541.938 375.175C545.158 374.725 548.761 373.83 552.379 372.721C558.411 370.871 564.52 368.415 569.028 366.389C569.038 366.874 569.141 367.858 569.312 369.19C569.494 370.612 569.759 372.467 570.088 374.617C570.745 378.918 571.662 384.409 572.698 390.004C572.865 390.908 573.036 391.815 573.209 392.721L488.134 386.694L482.633 348.011C483.491 348.26 484.311 348.595 485.068 349.082C485.335 349.533 485.751 349.994 486.268 350.459C486.834 350.969 487.545 351.505 488.373 352.062C490.03 353.174 492.185 354.387 494.648 355.641C499.575 358.151 505.777 360.849 511.787 363.272ZM570.037 366.584C570.236 366.46 570.46 366.323 570.705 366.173C570.633 368.652 571.001 372.166 571.629 376.171C572.396 381.064 573.561 386.754 574.836 392.318C574.877 392.494 574.917 392.669 574.957 392.844L574.241 392.794C574.051 391.804 573.865 390.811 573.681 389.822C572.647 384.237 571.732 378.756 571.076 374.466C570.748 372.32 570.485 370.474 570.304 369.063C570.155 367.904 570.065 367.061 570.037 366.584ZM574.438 393.81L575.194 393.864C575.86 396.713 576.55 399.511 577.223 402.131L576.144 402.071C575.565 399.455 574.99 396.654 574.438 393.81ZM576.239 393.938C576.908 396.792 577.599 399.584 578.27 402.188L579.237 402.242L577.494 394.027L576.239 393.938ZM578.534 403.204C579.911 408.484 581.186 412.887 582.005 415.292L579.452 403.255L578.534 403.204ZM575.811 392.094C575.874 392.369 575.937 392.644 576.001 392.918L577.279 393.009L571.696 366.69C571.683 369.021 572.028 372.26 572.617 376.017C573.379 380.878 574.539 386.543 575.811 392.094ZM600.546 305.68C600.457 305.671 600.369 305.661 600.282 305.651C605.387 304.357 610.431 303.221 614.635 302.531C614.716 302.517 614.797 302.504 614.877 302.491C615.398 302.841 615.949 303.302 616.538 303.863C616.982 304.286 617.436 304.755 617.904 305.26C614.963 305.521 611.887 305.732 608.994 305.833C605.801 305.944 602.846 305.92 600.546 305.68ZM617.228 303.139C616.906 302.833 616.585 302.544 616.263 302.28C618.073 302.022 619.678 301.866 621.007 301.838C623.99 301.774 625.801 301.968 626.901 302.316C627.268 302.433 627.545 302.563 627.757 302.699C627.523 303.294 627.301 303.826 627.115 304.25C624.875 304.546 622.108 304.867 619.153 305.146C618.491 304.411 617.85 303.731 617.228 303.139ZM627.915 304.914C628.07 304.568 628.259 304.129 628.462 303.629C628.537 303.89 628.566 304.187 628.582 304.54C628.585 304.613 628.587 304.69 628.59 304.77L628.594 304.908V304.909C628.601 305.176 628.609 305.468 628.632 305.751C628.705 306.636 628.936 307.619 629.802 308.557C630.235 309.025 630.838 309.645 631.565 310.391L631.567 310.393C633.46 312.336 636.186 315.134 638.896 318.35C642.651 322.804 646.28 327.955 647.523 332.554C647.735 333.338 648.013 334.318 648.346 335.458L643.566 333.814C642.334 328.522 639.254 323.06 633.304 317.781L633.244 317.727L633.171 317.696C628.575 315.708 624.873 311.688 621.67 308.017L621.546 307.875L621.381 307.685L621.019 307.269L620.986 307.231C620.644 306.837 620.307 306.449 619.975 306.071C622.793 305.796 625.409 305.487 627.525 305.204L627.801 305.167L627.915 304.914ZM648.488 332.293C648.74 333.223 649.085 334.431 649.504 335.857L651.399 336.509C650.511 333.737 649.787 331.633 649.331 330.584C649.119 330.098 648.883 329.541 648.623 328.925C647.306 325.811 645.358 321.203 642.68 316.658C639.467 311.204 635.252 305.932 629.915 303.449C629.736 303.366 629.556 303.284 629.377 303.205C629.383 303.222 629.388 303.24 629.394 303.257C629.398 303.269 629.401 303.281 629.405 303.292C629.528 303.69 629.564 304.105 629.581 304.497C629.587 304.644 629.591 304.784 629.594 304.921C629.601 305.17 629.608 305.411 629.629 305.668C629.691 306.423 629.874 307.161 630.537 307.879C630.946 308.322 631.531 308.922 632.242 309.652L632.243 309.653L632.245 309.655C634.139 311.599 636.925 314.459 639.661 317.705C643.423 322.169 647.183 327.465 648.488 332.293ZM615.095 301.444C614.5 301.086 613.904 300.838 613.303 300.741C613.372 300.728 613.445 300.715 613.522 300.702C614.095 300.607 614.826 300.533 615.684 300.502C617.185 300.447 619.057 300.523 621.139 300.835L620.986 300.838C619.352 300.873 617.345 301.092 615.095 301.444ZM618.744 306.188C615.564 306.481 612.19 306.722 609.029 306.833C605.818 306.944 602.81 306.921 600.443 306.675C599.62 306.589 598.866 306.476 598.202 306.329C598.523 306.965 598.803 307.54 599.039 308.048C599.398 308.822 599.662 309.458 599.803 309.918C599.872 310.142 599.924 310.362 599.929 310.55C599.931 310.643 599.924 310.774 599.866 310.904C599.799 311.056 599.664 311.199 599.46 311.25C599.191 311.317 598.726 311.341 598.181 311.354C597.698 311.366 597.101 311.368 596.426 311.372L596.07 311.373C594.419 311.382 592.341 311.401 590.193 311.544C588.042 311.688 585.839 311.955 583.936 312.453C583.478 312.573 583.042 312.705 582.63 312.85L642.441 333.427C641.168 328.543 638.222 323.499 632.7 318.581C627.903 316.481 624.089 312.309 620.917 308.674C620.683 308.406 620.452 308.141 620.225 307.88L620.225 307.88L620.223 307.877L620.211 307.864C619.706 307.282 619.218 306.721 618.744 306.188ZM573.405 393.737L488.278 387.707L489.644 397.307L575.107 402.014C574.529 399.385 573.955 396.578 573.405 393.737ZM571.667 249.2L566.181 250.353L566.031 249.973L565.882 249.593L565.792 249.365C565.238 247.963 564.587 246.354 563.829 244.806C563.641 244.422 563.446 244.04 563.243 243.665L570.082 241.977C570.245 242.145 570.465 242.419 570.706 242.792C571.032 243.298 571.371 243.948 571.632 244.679C572.133 246.084 572.324 247.719 571.667 249.2ZM562.931 245.246C562.708 244.792 562.478 244.345 562.239 243.913L557.844 244.998L559.287 251.801L565.188 250.561L565.098 250.331L565.097 250.331L564.968 250.003L564.862 249.733C564.309 248.333 563.67 246.756 562.931 245.246ZM560.43 241.208C560.881 241.743 561.309 242.353 561.714 243.012L557.636 244.019L556.574 239.014C556.851 239.038 557.142 239.081 557.448 239.145C558.504 239.368 559.497 240.102 560.43 241.208ZM555.55 239.004L556.665 244.259L548.972 246.158C548.876 246.064 548.78 245.979 548.686 245.906C547.75 245.178 546.966 243.897 546.385 242.55L545.439 238.093C545.567 237.818 545.782 237.592 546.046 237.508C546.442 237.382 547.264 237.488 548.504 238.976C549.188 239.797 549.852 240.216 550.579 240.3C551.275 240.38 551.935 240.135 552.55 239.883C552.644 239.844 552.739 239.805 552.836 239.764C553.614 239.439 554.465 239.084 555.55 239.004ZM547.046 245.666C547.276 245.953 547.521 246.217 547.781 246.452L547.241 246.585L547.046 245.666ZM548.639 247.27L547.448 247.564L548.814 254L552.513 253.223C552.171 252.676 551.836 252.13 551.508 251.596L551.508 251.595L551.507 251.593L551.503 251.587L551.499 251.581C551.01 250.784 550.537 250.014 550.084 249.31C549.677 248.678 549.297 248.117 548.951 247.662C548.841 247.518 548.737 247.387 548.639 247.27ZM545.427 242.853L546.269 246.825L532.348 250.261L532.207 250.296L532.106 250.402C531.809 250.713 531.612 251.07 531.496 251.452L509.342 255.981L509.341 255.981C508.629 256.106 507.477 256.223 506.357 256.165C505.798 256.136 505.261 256.064 504.798 255.935C504.585 255.875 504.394 255.806 504.227 255.726L503.839 255.465L503.777 255.171L503.542 255.223L502.639 254.378C502.157 253.728 501.926 252.992 501.851 252.262C501.733 251.116 502.002 250.006 502.281 249.348L502.344 249.202L502.31 249.046L501.413 244.94L501.306 244.448L500.814 244.559L493.401 246.241L492.888 246.358L493.03 246.865L494.155 250.857L494.21 251.053L494.387 251.155C495.13 251.583 495.562 252.589 495.746 253.859C495.902 254.94 495.86 256.091 495.76 256.922L495.731 256.928L495.709 257.286L495.601 257.981L495.69 257.961C495.714 263.005 499.317 272.433 513.592 275.325L513.945 275.397L514.124 275.085L515.042 273.493L515.365 272.933L514.742 272.761C513.257 272.352 511 271.396 509.095 269.874C507.251 268.401 505.786 266.442 505.587 263.975C506.467 263.281 508.44 262.022 510.602 261.536L510.659 261.524L532.89 256.67C533.189 257.143 533.492 257.566 533.761 257.902L533.953 258.143L534.255 258.079L548.042 255.184L557.113 297.944L473.039 280.552L462.481 206.314L542.477 228.947L544.403 238.026C544.342 238.241 544.311 238.456 544.311 238.656C544.311 239.386 544.656 240.92 545.27 242.471C545.32 242.598 545.372 242.725 545.427 242.853ZM534.355 257.036L547.835 254.206L546.477 247.804L532.739 251.195C532.572 251.403 532.464 251.645 532.408 251.918L532.399 251.968C532.302 252.495 532.39 253.134 532.615 253.828C532.839 254.515 533.185 255.217 533.562 255.849L533.63 255.965C533.874 256.366 534.125 256.731 534.355 257.036ZM558.25 298.485L549.021 254.978L553.083 254.125C553.898 255.394 554.729 256.603 555.525 257.521C555.98 258.045 556.44 258.495 556.895 258.807C557.245 259.049 557.628 259.233 558.026 259.279C558.29 260.094 558.658 261.122 559.067 262.068C559.327 262.666 559.608 263.244 559.895 263.716C560.155 264.143 560.457 264.551 560.799 264.781C560.806 264.791 560.814 264.805 560.824 264.824C560.868 264.905 560.925 265.03 560.995 265.204C561.073 265.396 561.161 265.634 561.259 265.916L570.316 308.614L564.252 306.527L564.101 306.475L563.947 306.521L560.19 307.633L558.25 298.485ZM556.281 256.866C555.595 256.075 554.868 255.038 554.132 253.905L558.516 252.984L559.599 258.09C559.458 258.061 559.238 258.049 559.043 258.042C558.816 258.034 558.553 258.031 558.316 258.031H557.644L557.669 258.113C557.603 258.077 557.535 258.034 557.462 257.984C557.106 257.739 556.71 257.36 556.281 256.866ZM556.872 245.238L558.308 252.006L553.556 253.004C553.162 252.378 552.764 251.73 552.373 251.093L552.372 251.092L552.371 251.09L552.369 251.087L552.365 251.08C551.865 250.266 551.378 249.472 550.925 248.769C550.512 248.128 550.116 247.542 549.747 247.057L549.708 247.006L556.872 245.238ZM638.584 290.165C639.93 291.238 641.167 292.196 642.225 292.973C643.113 293.625 643.867 294.145 644.45 294.499C644.742 294.677 644.983 294.807 645.169 294.892C645.263 294.934 645.336 294.961 645.391 294.978C645.433 294.99 645.454 294.993 645.459 294.994L645.46 294.994C646.003 294.994 646.38 294.932 646.627 294.839C646.865 294.749 646.94 294.647 646.968 294.576C647.002 294.491 647.018 294.33 646.92 294.045C646.822 293.762 646.629 293.408 646.325 292.982C645.973 292.489 645.801 292.023 645.901 291.565C645.996 291.13 646.314 290.843 646.534 290.655C646.584 290.612 646.632 290.572 646.677 290.534L646.677 290.534L646.678 290.533C646.863 290.378 647.003 290.26 647.114 290.106C647.226 289.95 647.3 289.761 647.256 289.45C647.13 288.57 647.049 287.908 647.199 287.232C647.35 286.553 647.721 285.91 648.363 285.011C648.554 284.745 648.918 284.127 649.349 283.23L643.768 280.65C643.556 281.742 643.284 282.768 642.979 283.699C642.258 285.907 641.339 287.643 640.567 288.484C640.023 289.078 639.335 289.635 638.584 290.165ZM642.833 280.218C642.623 281.357 642.344 282.425 642.029 283.389C641.325 285.544 640.46 287.121 639.83 287.809C639.297 288.39 638.585 288.954 637.77 289.512C637.107 288.978 636.422 288.421 635.723 287.846C630.863 283.851 625.328 279.063 621.678 275.838C618.732 267.835 615.286 264.934 612.136 264.146C610.571 263.755 609.135 263.903 607.967 264.137C607.518 264.227 607.099 264.332 606.734 264.424L606.734 264.424L606.732 264.425C606.627 264.451 606.527 264.476 606.432 264.5C605.982 264.61 605.67 264.673 605.454 264.673C605.334 264.673 605.1 264.617 604.732 264.454C604.38 264.298 603.953 264.066 603.467 263.77C603.047 263.514 602.589 263.214 602.105 262.881C602.516 262.504 602.971 262.154 603.478 261.841C603.57 261.802 603.686 261.741 603.796 261.683L603.918 261.619L604.022 261.564L604.029 261.56C604.141 261.5 604.267 261.433 604.423 261.351C604.939 261.08 605.648 260.717 606.524 260.314C608.275 259.507 610.69 258.54 613.534 257.833C619.224 256.418 626.6 256.051 633.842 260.047C635.72 261.083 637.256 262.27 638.5 263.557V277.895V278.214L638.79 278.349L642.833 280.218ZM643.946 279.631L649.764 282.32C650.59 280.417 651.52 277.688 651.937 274.535C652.198 272.558 652.257 270.42 651.963 268.219L639.5 262.553V263.158C643.01 266.959 644.211 271.551 644.234 275.786C644.242 277.113 644.134 278.406 643.946 279.631ZM639.5 264.689C642.252 268.102 643.214 272.077 643.234 275.791C643.241 276.96 643.154 278.103 643 279.193L639.5 277.575V264.689ZM638.5 262.157V262.099L638.374 262.041L638.438 262.1L638.5 262.157ZM637.88 261.606L638.5 261.41V261L639.032 261.242L647.917 258.431C647.447 257.812 646.932 257.2 646.367 256.596C635.291 244.765 622.297 244.084 614.122 249.038C609.941 251.572 607.996 253.207 606.943 254.198C606.697 254.431 606.497 254.629 606.325 254.8L606.287 254.838C606.111 255.014 605.951 255.172 605.801 255.298C605.649 255.428 605.487 255.543 605.297 255.622C605.101 255.703 604.903 255.736 604.69 255.736C604.317 255.736 603.797 255.934 603.248 256.244C602.717 256.545 602.234 256.907 601.957 257.144L601.758 257.315L601.504 257.248C600.072 256.869 597.931 256.391 596.16 256.184C595.267 256.08 594.505 256.05 593.983 256.12C593.844 256.139 593.736 256.163 593.654 256.188C595.348 257.658 597.809 259.706 600.098 261.429C600.497 261.729 600.889 262.019 601.27 262.293C601.775 261.81 602.344 261.362 602.992 260.966L603.041 260.936L603.095 260.918C603.094 260.919 603.153 260.892 603.33 260.798C603.387 260.768 603.461 260.729 603.546 260.684C603.668 260.619 603.812 260.542 603.958 260.466C604.483 260.19 605.209 259.819 606.105 259.406C607.897 258.58 610.372 257.589 613.292 256.862C619.132 255.411 626.789 255.013 634.325 259.171C635.671 259.914 636.85 260.731 637.88 261.606ZM467.572 325.447C467.649 325.214 467.691 324.98 467.715 324.754L469.143 334.578L465.464 335.667C465.295 335.249 465.137 334.612 465.17 333.958C465.205 333.251 465.457 332.559 466.123 332.059C466.777 331.568 467.004 330.935 467.024 330.284C467.04 329.745 466.912 329.165 466.799 328.651C466.785 328.588 466.771 328.525 466.758 328.464C466.629 327.868 466.539 327.353 466.605 326.892C466.665 326.466 466.862 326.064 467.384 325.698L467.519 325.604L467.572 325.447ZM468.921 342.988L468.921 342.988C469.383 343.015 469.877 343.044 470.382 343.108L469.288 335.578L465.324 336.751C465.189 337.215 465.064 337.822 465.016 338.497C464.946 339.5 465.049 340.621 465.514 341.644C465.767 342.2 466.158 342.499 466.68 342.68C467.233 342.873 467.912 342.927 468.72 342.976L468.921 342.988ZM479.305 346.348C479.996 346.449 480.714 346.555 481.436 346.697L479.428 332.577L470.257 335.291L471.421 343.301C472.25 343.51 473.073 343.874 473.804 344.538C475.071 345.691 476.941 346 479.146 346.325L479.305 346.348ZM556.744 308.653L490.484 328.262C490.439 327.886 490.364 327.409 490.271 326.879C490.114 325.983 489.898 324.886 489.659 323.752C489.18 321.488 488.604 319.051 488.215 317.756C488.047 317.194 487.998 316.296 487.961 315.188C487.957 315.066 487.953 314.943 487.949 314.818V314.818C487.919 313.836 487.885 312.753 487.754 311.751C487.608 310.634 487.333 309.528 486.736 308.746C486.43 308.345 486.037 308.025 485.538 307.84C485.041 307.656 484.472 307.617 483.832 307.724C482.412 307.96 481.645 309.074 481.238 310.399C480.833 311.722 480.739 313.386 480.739 315.001C480.739 315.814 480.763 316.628 480.787 317.392L480.791 317.521C480.813 318.24 480.834 318.91 480.834 319.504C480.834 320.137 480.81 320.657 480.746 321.041C480.713 321.232 480.674 321.37 480.634 321.462C480.616 321.503 480.601 321.528 480.591 321.543C480.587 321.549 480.584 321.553 480.581 321.556C480.579 321.56 480.577 321.561 480.576 321.562C480.49 321.618 480.334 321.67 480.068 321.684C479.803 321.697 479.472 321.671 479.078 321.61C479.011 321.599 478.943 321.588 478.873 321.576L474.591 291.466L556.744 308.653ZM480.118 322.683C479.784 322.7 479.411 322.669 479.021 322.612L480.255 331.289L489.51 328.55C489.476 328.215 489.4 327.701 489.286 327.051C489.132 326.171 488.918 325.086 488.68 323.959C488.203 321.7 487.633 319.296 487.257 318.043C487.043 317.331 486.997 316.286 486.962 315.221C486.958 315.104 486.954 314.986 486.95 314.867L486.95 314.849V314.849V314.848V314.848V314.848V314.848V314.847V314.847C486.919 313.859 486.886 312.829 486.763 311.881C486.622 310.8 486.371 309.916 485.941 309.352C485.734 309.081 485.488 308.888 485.19 308.778C484.889 308.666 484.503 308.626 483.996 308.71C483.123 308.856 482.552 309.525 482.194 310.693C481.836 311.863 481.739 313.399 481.739 315.001C481.739 315.797 481.762 316.595 481.786 317.361L481.79 317.495C481.813 318.209 481.834 318.893 481.834 319.504C481.834 320.148 481.811 320.737 481.732 321.207C481.692 321.442 481.636 321.667 481.551 321.862C481.467 322.055 481.339 322.256 481.134 322.392C480.837 322.59 480.476 322.665 480.118 322.683ZM479.286 331.576L477.983 322.418C477.511 322.316 477.009 322.193 476.496 322.068L476.495 322.067L476.49 322.066C476.335 322.028 476.18 321.99 476.025 321.953C474.974 321.698 473.885 321.45 472.843 321.326C471.797 321.202 470.838 321.209 470.037 321.438C469.189 321.68 468.675 321.955 468.358 322.225L470.112 334.291L479.286 331.576ZM476.744 321.099C477.124 321.192 477.488 321.281 477.833 321.36L473.501 290.901L472.099 281.041L461.383 205.694L459.837 194.821L459.153 190.017L458.111 182.685L458.11 182.68L453.03 144.44L442.402 143.607L468.197 321.117C468.607 320.873 469.121 320.66 469.763 320.476C470.746 320.195 471.857 320.202 472.961 320.333C474.068 320.464 475.209 320.726 476.26 320.981C476.417 321.019 476.572 321.057 476.724 321.094L476.743 321.098L476.744 321.099ZM580.011 313.006L578.214 312.388C578.555 312.894 578.884 313.311 579.198 313.636C579.445 313.41 579.717 313.2 580.011 313.006ZM573.301 304.453C574.209 306.779 575.114 308.864 575.997 310.568L571.419 308.993L564.876 278.152C565.734 281.131 566.68 284.387 567.679 287.691C569.448 293.539 571.387 299.55 573.301 304.453ZM559.801 259.046L560.644 263.017C560.424 262.631 560.201 262.168 559.985 261.67C559.63 260.85 559.305 259.959 559.057 259.213C559.242 259.191 559.383 259.17 559.485 259.151C559.513 259.146 559.541 259.141 559.568 259.134C559.591 259.129 559.615 259.123 559.637 259.116L559.64 259.116C559.663 259.109 559.73 259.09 559.801 259.046ZM545.743 236.555C545.529 236.623 545.341 236.725 545.176 236.851L543.393 228.444L540.802 216.231L522.701 130.902L532.815 131.826L555.341 238.019C554.15 238.129 553.223 238.518 552.458 238.838L552.455 238.84C552.357 238.88 552.262 238.92 552.17 238.958C551.543 239.215 551.104 239.353 550.693 239.306C550.313 239.262 549.863 239.044 549.272 238.336C547.964 236.766 546.749 236.235 545.743 236.555ZM559.228 307.917L558.766 308.054L474.442 290.413L473.189 281.604L557.339 299.012L559.228 307.917ZM542.242 227.841L462.327 205.231L460.933 195.431L539.887 216.738L542.242 227.841ZM753.371 330.218L650.672 282.74C651.537 280.751 652.498 277.923 652.929 274.666C653.175 272.798 653.248 270.784 653.028 268.703L753.371 314.322V330.218ZM753.887 313.458L652.873 267.534C652.424 264.709 651.406 261.791 649.527 258.97L683.79 248.129L753.655 281.57L753.846 281.661L754.044 281.588L789.99 268.293L790.173 268.225L806.343 262.246L807.554 261.797L806.357 261.313L726.372 228.944L764.133 216.53L848.019 248.06L848.181 248.121L848.345 248.069L878.995 238.452L915.122 252.793L891.873 263.904L890.827 264.405L891.909 264.822L962.668 292.102L927.566 307.015L848.37 277.427L848.193 277.36L848.017 277.428L753.887 313.458ZM651.771 267.033C651.278 264.462 650.277 261.829 648.533 259.285L640.393 261.86L651.771 267.033ZM928.078 307.884L963.5 292.835V304.186L928.078 321.205V307.884ZM848.695 278.615L927.078 307.9V321.277L848.695 291.733V278.615ZM754.371 314.344L847.695 278.622V291.744L754.371 330.253V314.344ZM804.785 261.756L790.01 267.22L725.419 240.665V229.637L804.785 261.756ZM300.155 408.47L300.32 408.532L384.21 440.064L414.865 430.444L415.034 430.391L415.199 430.457L452.555 445.286L453.619 445.708L452.586 446.201L429.351 457.306L499.991 484.54L500.5 484.323V484.736L501.332 485.057L500.5 485.41V497.5V497.815L500.216 497.951L463.794 515.451L463.601 515.543L463.401 515.468L384.204 485.616L290.061 524.462L289.859 524.546L289.661 524.454L174.79 471.349L174.5 471.214V470.895V455.099L173.607 454.693L174.5 454.41V454L175.032 454.242L219.677 440.116L219.865 440.056L220.043 440.141L289.896 473.576L324.625 460.732L260.729 434.463L260.419 434.335V434V422.232L259.466 421.846L260.419 421.533V421.153L260.938 421.363L299.987 408.525L300.155 408.47ZM427.909 457.822L498.668 485.102L463.566 500.015L384.37 470.427L384.193 470.36L384.017 470.428L289.887 506.458L176.393 454.86L219.79 441.129L289.655 474.57L289.846 474.661L290.044 474.588L325.99 461.293L326.173 461.225L342.343 455.246L343.554 454.797L342.357 454.313L262.372 421.944L300.132 409.53L384.019 441.06L384.181 441.121L384.345 441.069L414.995 431.452L451.122 445.793L427.873 456.904L426.827 457.405L427.909 457.822ZM464.078 500.884L499.5 485.835V497.186L464.078 514.205V500.884ZM384.695 471.615L463.078 500.9V514.277L384.695 484.733V471.615ZM290.371 507.344L383.695 471.622V484.744L290.371 523.253V507.344ZM289.371 507.322L175.5 455.553V470.575L289.371 523.218V507.322ZM340.785 454.756L326.01 460.22L261.419 433.665V422.637L340.785 454.756ZM560.784 264.758C560.78 264.753 560.78 264.752 560.784 264.757L560.784 264.758ZM503.006 256.364L496.691 257.742C496.611 262.219 499.726 271.351 513.439 274.272L513.861 273.539C512.31 273.032 510.254 272.08 508.47 270.655C506.448 269.04 504.724 266.772 504.574 263.814L503.006 256.364ZM532.364 255.761C532.092 255.245 531.844 254.693 531.664 254.137C531.49 253.602 531.371 253.044 531.36 252.5L509.94 256.879C509.961 257.318 510.02 257.895 510.14 258.5C510.278 259.199 510.49 259.903 510.796 260.47L532.364 255.761ZM504.112 256.762C504.248 256.814 504.388 256.858 504.529 256.898C505.085 257.053 505.7 257.132 506.305 257.164C507.25 257.212 508.206 257.147 508.947 257.052C508.975 257.518 509.04 258.093 509.158 258.693C509.288 259.354 509.489 260.071 509.796 260.71C507.988 261.225 506.377 262.17 505.397 262.869L504.112 256.762ZM502.284 255.498L496.789 256.697C496.869 255.839 496.886 254.756 496.735 253.715C496.596 252.755 496.301 251.741 495.706 251L501.067 249.829C500.877 250.551 500.761 251.443 500.856 252.364C500.967 253.441 501.37 254.57 502.284 255.498ZM494.99 250.132L494.136 247.1L500.544 245.646L501.226 248.771L494.99 250.132Z" fill="#00b3e4"/>
</svg>