<svg class="illustration" width="1152" height="700" viewBox="0 0 1152 700" fill="none" xmlns="http://www.w3.org/2000/svg">
<g clip-path="url(#clip0)">
<path fill-rule="evenodd" clip-rule="evenodd" d="M566.491 396.487L787.227 524.189L787.229 489.232L817.476 506.724L817.497 151.907L597.9 26.1778L598.007 61.3467L570.632 45.7204L597.859 31.1697L597.773 25.9586L565.771 44.4353L566.491 396.487Z" fill="
#02b3e4"/>
<path d="M787.227 524.189L787.1 524.408L787.48 524.628L787.48 524.189L787.227 524.189ZM566.491 396.487L566.238 396.487L566.238 396.633L566.364 396.706L566.491 396.487ZM787.229 489.232L787.356 489.013L786.976 488.794L786.976 489.232L787.229 489.232ZM817.476 506.724L817.349 506.944L817.729 507.163L817.729 506.725L817.476 506.724ZM817.497 151.907L817.75 151.907L817.75 151.76L817.623 151.687L817.497 151.907ZM597.9 26.1778L598.026 25.9581L597.646 25.7404L597.647 26.1785L597.9 26.1778ZM598.007 61.3467L597.881 61.5665L598.261 61.7834L598.26 61.346L598.007 61.3467ZM570.632 45.7204L570.513 45.4971L570.109 45.7131L570.506 45.9402L570.632 45.7204ZM597.859 31.1697L597.979 31.3929L598.115 31.3201L598.112 31.1655L597.859 31.1697ZM597.773 25.9586L598.026 25.9544L598.019 25.5243L597.647 25.7394L597.773 25.9586ZM565.771 44.4353L565.644 44.2161L565.517 44.2894L565.518 44.4358L565.771 44.4353ZM787.354 523.97L566.617 396.268L566.364 396.706L787.1 524.408L787.354 523.97ZM786.976 489.232L786.974 524.189L787.48 524.189L787.482 489.232L786.976 489.232ZM787.102 489.451L817.349 506.944L817.603 506.505L787.356 489.013L787.102 489.451ZM817.729 506.725L817.75 151.907L817.244 151.907L817.223 506.724L817.729 506.725ZM817.623 151.687L598.026 25.9581L597.774 26.3974L817.371 152.127L817.623 151.687ZM597.647 26.1785L597.754 61.3475L598.26 61.346L598.153 26.177L597.647 26.1785ZM570.506 45.9402L597.881 61.5665L598.132 61.1269L570.757 45.5006L570.506 45.9402ZM597.74 30.9464L570.513 45.4971L570.751 45.9436L597.979 31.3929L597.74 30.9464ZM597.52 25.9628L597.606 31.1738L598.112 31.1655L598.026 25.9544L597.52 25.9628ZM565.897 44.6545L597.9 26.1778L597.647 25.7394L565.644 44.2161L565.897 44.6545ZM566.744 396.486L566.024 44.4348L565.518 44.4358L566.238 396.487L566.744 396.486Z" fill="black"/>
<path d="M608.974 348.578L739.537 424.881L740.897 222.728L609.828 145.548L608.974 348.578Z" stroke="white" stroke-width="1.01242"/>
<path d="M600.051 357.422L749.573 444.806L751.131 213.297L601.029 124.909L600.051 357.422Z" stroke="white" stroke-width="1.15944"/>
<path d="M812.87 501.785L786.567 516.971L787.029 169.498L813.332 154.311L812.87 501.785Z" fill="#FBECEC" stroke="black" stroke-opacity="0.1" stroke-width="0.506211"/>
<path d="M595.464 29.0452L568.064 44.8643L786.809 169.624L813.113 154.438L595.464 29.0452Z" fill="#FBECEC" stroke="black" stroke-opacity="0.1" stroke-width="0.506211"/>
<path d="M791.96 508.595L792.884 180.145" stroke="black" stroke-opacity="0.12" stroke-width="1.01242"/>
<path d="M796.564 505.938L797.487 177.488" stroke="black" stroke-opacity="0.12" stroke-width="1.01242"/>
<path d="M801.167 503.281L802.09 174.83" stroke="black" stroke-opacity="0.12" stroke-width="1.01242"/>
<path d="M805.77 500.623L806.693 172.173" stroke="black" stroke-opacity="0.12" stroke-width="1.01242"/>
<path d="M833.77 505.214C823.763 487.75 805.169 440.166 793.527 413.59L793.527 393.848L801.626 413.59C806.435 429.789 836.906 495.68 856.986 532.296L845.849 521.413L845.413 533.815C839.592 520.654 846.3 527.08 833.77 505.214Z" fill="#FD82AE"/>
<path d="M580.704 41.9521L793.332 162.352" stroke="black" stroke-opacity="0.12" stroke-width="1.01242"/>
<path d="M584.16 39.9551L796.789 160.355" stroke="black" stroke-opacity="0.12" stroke-width="1.01242"/>
<path d="M587.617 37.959L800.246 158.359" stroke="black" stroke-opacity="0.12" stroke-width="1.01242"/>
<path d="M591.075 35.9639L803.703 156.364" stroke="black" stroke-opacity="0.12" stroke-width="1.01242"/>
<path fill-rule="evenodd" clip-rule="evenodd" d="M456.611 328.831L245.069 471.247L276.487 486.573L247.505 506.09L566.404 661.651L775.674 519.395L744.017 504.073L770.062 486.319L771.205 517.17L775.926 519.377L773.348 482.513L456.611 328.831Z" fill="#4C5EFF"/>
<path d="M481.048 388.016L355.232 471.916L536.33 561.757L663.155 477.787L481.048 388.016Z" stroke="white" stroke-width="1.01242"/>
<path d="M477.01 376.12L332.924 472.203L540.32 575.09L685.563 478.926L477.01 376.12Z" stroke="white" stroke-width="1.15944"/>
<path d="M253.964 504.116L251.845 473.817L563.95 626.555L566.068 656.854L253.964 504.116Z" fill="#FBECEC" stroke="black" stroke-opacity="0.15" stroke-width="0.506211"/>
<path d="M774.164 515.948L771.957 484.387L563.932 626.303L566.051 656.601L774.164 515.948Z" fill="#FBECEC" stroke="black" stroke-opacity="0.15" stroke-width="0.506211"/>
<path d="M257.009 482.336L551.813 627.15" stroke="black" stroke-opacity="0.12" stroke-width="1.01242"/>
<path d="M257.379 487.639L552.184 632.452" stroke="black" stroke-opacity="0.12" stroke-width="1.01242"/>
<path d="M257.75 492.941L552.554 637.754" stroke="black" stroke-opacity="0.12" stroke-width="1.01242"/>
<path d="M258.121 498.243L552.925 643.056" stroke="black" stroke-opacity="0.12" stroke-width="1.01242"/>
<path d="M769.035 497.023L567.61 635.353" stroke="black" stroke-opacity="0.12" stroke-width="1.01242"/>
<path d="M769.313 501.005L567.888 639.335" stroke="black" stroke-opacity="0.12" stroke-width="1.01242"/>
<path d="M769.592 504.988L568.167 643.317" stroke="black" stroke-opacity="0.12" stroke-width="1.01242"/>
<path d="M769.87 508.97L568.445 647.299" stroke="black" stroke-opacity="0.12" stroke-width="1.01242"/>
<path fill-rule="evenodd" clip-rule="evenodd" d="M477.398 280.709L256.437 408.022L286.709 425.502L256.436 442.95L563.707 620.377L782.39 493.065L751.88 475.573L779.1 459.679L778.088 490.534L782.643 493.065V456.112L477.398 280.709Z" fill="
#ffffff"/>
<path d="M497.646 341.455L366.284 416.374L540.674 518.629L673.048 443.709L497.646 341.455Z" stroke="white" stroke-width="1.01242"/>
<path d="M494.448 329.306L344.011 415.104L543.725 532.208L695.321 446.409L494.448 329.306Z" stroke="white" stroke-width="1.15944"/>
<path d="M263.017 441.432V411.059L563.707 585.196V615.568L263.017 441.432Z" fill="#FBECEC" stroke="black" stroke-opacity="0.08" stroke-width="0.506211"/>
<path d="M781.125 489.522V457.883L563.707 584.942V615.315L781.125 489.522Z" fill="#FBECEC" stroke="black" stroke-opacity="0.08" stroke-width="0.506211"/>
<path d="M267.573 419.917L551.558 584.942" stroke="black" stroke-opacity="0.12" stroke-width="1.01242"/>
<path d="M267.573 425.233L551.558 590.258" stroke="black" stroke-opacity="0.12" stroke-width="1.01242"/>
<path d="M267.573 430.548L551.558 595.573" stroke="black" stroke-opacity="0.12" stroke-width="1.01242"/>
<path d="M267.573 435.863L551.558 600.888" stroke="black" stroke-opacity="0.12" stroke-width="1.01242"/>
<path d="M777.328 470.286L566.744 594.227" stroke="black" stroke-opacity="0.12" stroke-width="1.01242"/>
<path d="M777.328 474.278L566.744 598.22" stroke="black" stroke-opacity="0.12" stroke-width="1.01242"/>
<path d="M777.328 478.27L566.744 602.211" stroke="black" stroke-opacity="0.12" stroke-width="1.01242"/>
<path d="M777.328 482.262L566.744 606.204" stroke="black" stroke-opacity="0.12" stroke-width="1.01242"/>
<path d="M661.659 669.226C631.996 641.034 614.053 621.957 590.536 583.93L600.913 578.868C600.913 578.868 634.576 623.794 636.854 628.476C639.132 633.159 674.567 666.948 674.567 666.948L692.537 678.338L674.567 672.77L681.401 684.413L661.659 669.226Z" fill="#FF7D61"/>
</g>
<defs>
<clipPath id="clip0">
<rect width="1152" height="700" fill="white"/>
</clipPath>
</defs>
</svg>
