<svg class="illustration" width="1155" height="700" viewBox="0 0 1155 700" fill="none" xmlns="http://www.w3.org/2000/svg">
<rect x="376" y="150" width="404.651" height="400" rx="14.1954" fill="#02b3e4"/>
<path fill-rule="evenodd" clip-rule="evenodd" d="M406.233 207.747C406.233 205.395 408.139 203.488 410.491 203.488H446.16C448.512 203.488 450.419 205.395 450.419 207.747V243.416C450.419 245.768 448.512 247.674 446.16 247.674H410.491C408.139 247.674 406.233 245.768 406.233 243.416V207.747ZM477.163 208.14C473.952 208.14 471.349 210.743 471.349 213.953C471.349 217.164 473.952 219.767 477.163 219.767H749.256C752.467 219.767 755.07 217.164 755.07 213.953C755.07 210.743 752.467 208.14 749.256 208.14H477.163ZM477.163 231.395C473.952 231.395 471.349 233.998 471.349 237.209C471.349 240.42 473.952 243.023 477.163 243.023H621.349C624.56 243.023 627.163 240.42 627.163 237.209C627.163 233.998 624.56 231.395 621.349 231.395H477.163ZM477.163 291.86C473.952 291.86 471.349 294.463 471.349 297.674C471.349 300.885 473.952 303.488 477.163 303.488H749.256C752.467 303.488 755.07 300.885 755.07 297.674C755.07 294.463 752.467 291.86 749.256 291.86H477.163ZM471.349 320.93C471.349 317.719 473.952 315.116 477.163 315.116H621.349C624.56 315.116 627.163 317.719 627.163 320.93C627.163 324.141 624.56 326.744 621.349 326.744H477.163C473.952 326.744 471.349 324.141 471.349 320.93ZM410.491 287.209C408.139 287.209 406.233 289.116 406.233 291.468V327.137C406.233 329.489 408.139 331.395 410.491 331.395H446.16C448.512 331.395 450.419 329.489 450.419 327.137V291.468C450.419 289.116 448.512 287.209 446.16 287.209H410.491ZM471.349 381.395C471.349 378.184 473.952 375.581 477.163 375.581H749.256C752.467 375.581 755.07 378.184 755.07 381.395C755.07 384.606 752.467 387.209 749.256 387.209H477.163C473.952 387.209 471.349 384.606 471.349 381.395ZM477.163 398.837C473.952 398.837 471.349 401.44 471.349 404.651C471.349 407.862 473.952 410.465 477.163 410.465H621.349C624.56 410.465 627.163 407.862 627.163 404.651C627.163 401.44 624.56 398.837 621.349 398.837H477.163ZM406.233 375.189C406.233 372.837 408.139 370.93 410.491 370.93H446.16C448.512 370.93 450.419 372.837 450.419 375.189V410.858C450.419 413.21 448.512 415.116 446.16 415.116H410.491C408.139 415.116 406.233 413.21 406.233 410.858V375.189ZM477.163 459.302C473.952 459.302 471.349 461.905 471.349 465.116C471.349 468.327 473.952 470.93 477.163 470.93H749.256C752.467 470.93 755.07 468.327 755.07 465.116C755.07 461.905 752.467 459.302 749.256 459.302H477.163ZM471.349 488.372C471.349 485.161 473.952 482.558 477.163 482.558H621.349C624.56 482.558 627.163 485.161 627.163 488.372C627.163 491.583 624.56 494.186 621.349 494.186H477.163C473.952 494.186 471.349 491.583 471.349 488.372ZM410.491 454.651C408.139 454.651 406.233 456.558 406.233 458.91V494.579C406.233 496.931 408.139 498.837 410.491 498.837H446.16C448.512 498.837 450.419 496.931 450.419 494.579V458.91C450.419 456.558 448.512 454.651 446.16 454.651H410.491Z" fill="white"/>
<path fill-rule="evenodd" clip-rule="evenodd" d="M428.922 239.572L446.364 213.991L442.845 211.592L426.698 235.274L416.865 227.408L414.205 230.733L425.833 240.035L427.627 241.471L428.922 239.572ZM428.922 323.293L446.364 297.712L442.845 295.313L426.698 318.995L416.865 311.129L414.205 314.454L425.833 323.756L427.627 325.192L428.922 323.293ZM444.509 378.919L427.067 404.5L425.773 406.399L423.978 404.963L412.35 395.661L415.01 392.336L424.844 400.202L440.991 376.52L444.509 378.919ZM425.212 485.707L442.654 460.126L439.136 457.727L422.989 481.409L413.155 473.543L410.495 476.868L422.123 486.17L423.918 487.606L425.212 485.707Z" fill="#ffffff"/>
</svg>